<mxfile host="65bd71144e">
    <diagram id="5aS5f4r-O0a3wZJJJMBq" name="Page-1">
        <mxGraphModel dx="1211" dy="931" grid="1" gridSize="10" guides="1" tooltips="1" connect="1" arrows="1" fold="1" page="1" pageScale="1" pageWidth="1100" pageHeight="850" background="#F4F1DE" math="0" shadow="0">
            <root>
                <mxCell id="0"/>
                <mxCell id="1" parent="0"/>
                <mxCell id="426" value="" style="swimlane;startSize=0;sketch=1;rounded=1;fillColor=#F2CC8F;strokeColor=#E07A5F;fontColor=#393C56;" vertex="1" parent="1">
                    <mxGeometry x="330" y="387.5" width="150" height="80" as="geometry">
                        <mxRectangle x="310" y="170" width="50" height="40" as="alternateBounds"/>
                    </mxGeometry>
                </mxCell>
                <mxCell id="427" value="ZooKeeper" style="text;html=1;align=center;verticalAlign=middle;resizable=0;points=[];autosize=1;strokeColor=#E07A5F;glass=1;shadow=1;fontColor=#393C56;sketch=1;rounded=1;" vertex="1" parent="426">
                    <mxGeometry x="40" y="50" width="70" height="20" as="geometry"/>
                </mxCell>
                <mxCell id="431" value="Kafka Server" style="text;html=1;align=center;verticalAlign=middle;resizable=0;points=[];autosize=1;strokeColor=#E07A5F;glass=1;shadow=1;fontColor=#393C56;sketch=1;rounded=1;" vertex="1" parent="426">
                    <mxGeometry x="35" y="10" width="80" height="20" as="geometry"/>
                </mxCell>
                <mxCell id="451" style="edgeStyle=orthogonalEdgeStyle;orthogonalLoop=1;jettySize=auto;html=1;exitX=0;exitY=0.5;exitDx=0;exitDy=0;entryX=1;entryY=0.25;entryDx=0;entryDy=0;sketch=1;curved=1;labelBackgroundColor=#F4F1DE;strokeColor=#E07A5F;fontColor=#393C56;" edge="1" parent="1" source="443" target="426">
                    <mxGeometry relative="1" as="geometry"/>
                </mxCell>
                <mxCell id="458" style="edgeStyle=orthogonalEdgeStyle;orthogonalLoop=1;jettySize=auto;html=1;exitX=1;exitY=0.5;exitDx=0;exitDy=0;entryX=0;entryY=0.5;entryDx=0;entryDy=0;entryPerimeter=0;sketch=1;curved=1;labelBackgroundColor=#F4F1DE;strokeColor=#E07A5F;fontColor=#393C56;" edge="1" parent="1" source="443" target="455">
                    <mxGeometry relative="1" as="geometry"/>
                </mxCell>
                <mxCell id="459" style="edgeStyle=orthogonalEdgeStyle;orthogonalLoop=1;jettySize=auto;html=1;exitX=1;exitY=0.5;exitDx=0;exitDy=0;entryX=0;entryY=0.5;entryDx=0;entryDy=0;entryPerimeter=0;sketch=1;curved=1;labelBackgroundColor=#F4F1DE;strokeColor=#E07A5F;fontColor=#393C56;" edge="1" parent="1" source="449" target="456">
                    <mxGeometry relative="1" as="geometry"/>
                </mxCell>
                <mxCell id="460" style="edgeStyle=orthogonalEdgeStyle;orthogonalLoop=1;jettySize=auto;html=1;exitX=0;exitY=0.5;exitDx=0;exitDy=0;entryX=1;entryY=0.75;entryDx=0;entryDy=0;sketch=1;curved=1;labelBackgroundColor=#F4F1DE;strokeColor=#E07A5F;fontColor=#393C56;" edge="1" parent="1" source="449" target="426">
                    <mxGeometry relative="1" as="geometry"/>
                </mxCell>
                <mxCell id="478" value="&lt;h1&gt;&lt;font&gt;&lt;span style=&quot;text-align: center&quot;&gt;&lt;font style=&quot;font-size: 18px&quot;&gt;Python: Consum Kakfa Topics into Database&lt;/font&gt;&lt;/span&gt;&lt;br&gt;&lt;/font&gt;&lt;/h1&gt;&lt;p&gt;&lt;font style=&quot;font-size: 14px&quot;&gt;The objective of this project if consume events data from kafka topics into multiple databases.&lt;/font&gt;&lt;/p&gt;" style="text;html=1;fillColor=#F2CC8F;spacing=5;spacingTop=-20;whiteSpace=wrap;overflow=hidden;shadow=1;glass=0;strokeColor=#E07A5F;fontColor=#393C56;sketch=1;rounded=1;" vertex="1" parent="1">
                    <mxGeometry x="375" y="130" width="350" height="140" as="geometry"/>
                </mxCell>
                <mxCell id="483" value="" style="group;sketch=1;rounded=1;fontColor=#393C56;" vertex="1" connectable="0" parent="1">
                    <mxGeometry x="40" y="310" width="260" height="195" as="geometry"/>
                </mxCell>
                <mxCell id="481" value="Producers (Publishing)" style="swimlane;shadow=1;glass=0;strokeColor=#E07A5F;fontColor=#393C56;sketch=1;rounded=1;fillColor=#F2CC8F;" vertex="1" parent="483">
                    <mxGeometry width="260" height="195" as="geometry">
                        <mxRectangle width="130" height="23" as="alternateBounds"/>
                    </mxGeometry>
                </mxCell>
                <mxCell id="482" value="" style="group;sketch=1;rounded=1;fontColor=#393C56;" vertex="1" connectable="0" parent="481">
                    <mxGeometry x="20" y="45" width="220" height="140" as="geometry"/>
                </mxCell>
                <mxCell id="428" value="Events" style="shape=step;perimeter=stepPerimeter;whiteSpace=wrap;html=1;fixedSize=1;shadow=1;glass=1;strokeColor=#E07A5F;sketch=1;rounded=1;fillColor=#F2CC8F;fontColor=#393C56;" vertex="1" parent="482">
                    <mxGeometry width="80" height="40" as="geometry"/>
                </mxCell>
                <mxCell id="430" value="Kafka Producer" style="whiteSpace=wrap;html=1;shadow=1;glass=0;strokeColor=#E07A5F;sketch=1;rounded=1;fillColor=#F2CC8F;fontColor=#393C56;" vertex="1" parent="482">
                    <mxGeometry x="140" y="27.5" width="80" height="85" as="geometry"/>
                </mxCell>
                <mxCell id="436" style="edgeStyle=orthogonalEdgeStyle;orthogonalLoop=1;jettySize=auto;html=1;exitX=1;exitY=0.5;exitDx=0;exitDy=0;entryX=0.5;entryY=0;entryDx=0;entryDy=0;sketch=1;curved=1;labelBackgroundColor=#F4F1DE;strokeColor=#E07A5F;fontColor=#393C56;" edge="1" parent="482" source="428" target="430">
                    <mxGeometry relative="1" as="geometry"/>
                </mxCell>
                <mxCell id="438" style="edgeStyle=orthogonalEdgeStyle;orthogonalLoop=1;jettySize=auto;html=1;exitX=1;exitY=0.5;exitDx=0;exitDy=0;entryX=0.5;entryY=1;entryDx=0;entryDy=0;sketch=1;curved=1;labelBackgroundColor=#F4F1DE;strokeColor=#E07A5F;fontColor=#393C56;" edge="1" parent="482" source="435" target="430">
                    <mxGeometry relative="1" as="geometry"/>
                </mxCell>
                <mxCell id="435" value="Events" style="shape=step;perimeter=stepPerimeter;whiteSpace=wrap;html=1;fixedSize=1;shadow=1;glass=1;strokeColor=#E07A5F;sketch=1;rounded=1;fillColor=#F2CC8F;fontColor=#393C56;" vertex="1" parent="482">
                    <mxGeometry y="100" width="80" height="40" as="geometry"/>
                </mxCell>
                <mxCell id="437" style="edgeStyle=orthogonalEdgeStyle;orthogonalLoop=1;jettySize=auto;html=1;exitX=1;exitY=0.5;exitDx=0;exitDy=0;entryX=0;entryY=0.5;entryDx=0;entryDy=0;sketch=1;curved=1;labelBackgroundColor=#F4F1DE;strokeColor=#E07A5F;fontColor=#393C56;" edge="1" parent="482" source="434" target="430">
                    <mxGeometry relative="1" as="geometry"/>
                </mxCell>
                <mxCell id="434" value="Events" style="shape=step;perimeter=stepPerimeter;whiteSpace=wrap;html=1;fixedSize=1;shadow=1;glass=1;strokeColor=#E07A5F;sketch=1;rounded=1;fillColor=#F2CC8F;fontColor=#393C56;" vertex="1" parent="482">
                    <mxGeometry y="50" width="80" height="40" as="geometry"/>
                </mxCell>
                <mxCell id="439" style="edgeStyle=orthogonalEdgeStyle;orthogonalLoop=1;jettySize=auto;html=1;exitX=1;exitY=0.5;exitDx=0;exitDy=0;entryX=-0.01;entryY=0.464;entryDx=0;entryDy=0;entryPerimeter=0;sketch=1;curved=1;labelBackgroundColor=#F4F1DE;strokeColor=#E07A5F;fontColor=#393C56;" edge="1" parent="481" source="430">
                    <mxGeometry relative="1" as="geometry">
                        <mxPoint x="298.5" y="124.62000000000012" as="targetPoint"/>
                    </mxGeometry>
                </mxCell>
                <mxCell id="506" value="Consumers" style="swimlane;shadow=1;glass=0;fontColor=#393C56;strokeColor=#E07A5F;sketch=1;rounded=1;fillColor=#F2CC8F;" vertex="1" parent="1">
                    <mxGeometry x="540" y="315" width="130" height="185" as="geometry">
                        <mxRectangle x="540" y="315" width="100" height="23" as="alternateBounds"/>
                    </mxGeometry>
                </mxCell>
                <mxCell id="443" value="Kafka Consumer" style="whiteSpace=wrap;html=1;shadow=1;glass=0;strokeColor=#E07A5F;arcSize=32;sketch=1;rounded=1;fillColor=#F2CC8F;fontColor=#393C56;" vertex="1" parent="506">
                    <mxGeometry x="30" y="45" width="70" height="52.5" as="geometry"/>
                </mxCell>
                <mxCell id="449" value="Kafka Consumer" style="whiteSpace=wrap;html=1;shadow=1;glass=0;strokeColor=#E07A5F;arcSize=32;sketch=1;rounded=1;fillColor=#F2CC8F;fontColor=#393C56;" vertex="1" parent="506">
                    <mxGeometry x="30" y="115" width="70" height="52.5" as="geometry"/>
                </mxCell>
                <mxCell id="507" value="Storage Layer" style="swimlane;shadow=1;glass=0;fontColor=#393C56;strokeColor=#E07A5F;sketch=1;rounded=1;fillColor=#F2CC8F;" vertex="1" parent="1">
                    <mxGeometry x="740" y="315" width="130" height="190" as="geometry"/>
                </mxCell>
                <mxCell id="455" value="Cassandra" style="strokeWidth=2;html=1;shape=mxgraph.flowchart.database;whiteSpace=wrap;shadow=1;glass=0;fillColor=#F2CC8F;strokeColor=#E07A5F;fontColor=#393C56;sketch=1;rounded=1;" vertex="1" parent="507">
                    <mxGeometry x="30" y="40" width="70" height="60" as="geometry"/>
                </mxCell>
                <mxCell id="456" value="PostgreSQL" style="strokeWidth=2;html=1;shape=mxgraph.flowchart.database;whiteSpace=wrap;shadow=1;glass=0;fillColor=#F2CC8F;strokeColor=#E07A5F;fontColor=#393C56;sketch=1;rounded=1;" vertex="1" parent="507">
                    <mxGeometry x="30" y="110" width="70" height="60" as="geometry"/>
                </mxCell>
                <mxCell id="510" style="edgeStyle=orthogonalEdgeStyle;orthogonalLoop=1;jettySize=auto;html=1;entryX=1;entryY=0.5;entryDx=0;entryDy=0;fontColor=#393C56;sketch=1;curved=1;labelBackgroundColor=#F4F1DE;strokeColor=#E07A5F;" edge="1" parent="1" source="508" target="507">
                    <mxGeometry relative="1" as="geometry"/>
                </mxCell>
                <mxCell id="508" value="Visualization" style="swimlane;shadow=1;glass=0;fontColor=#393C56;strokeColor=#E07A5F;sketch=1;rounded=1;fillColor=#F2CC8F;" vertex="1" parent="1">
                    <mxGeometry x="950" y="332.5" width="110" height="155" as="geometry"/>
                </mxCell>
                <mxCell id="472" value="Apache SuperSet" style="whiteSpace=wrap;html=1;shadow=1;glass=0;fontColor=#393C56;strokeColor=#E07A5F;sketch=1;rounded=1;fillColor=#F2CC8F;" vertex="1" parent="508">
                    <mxGeometry x="15" y="50" width="80" height="30" as="geometry"/>
                </mxCell>
            </root>
        </mxGraphModel>
    </diagram>
</mxfile>